<?xml version="1.0" encoding="utf-8"?>
<?xml-stylesheet type="text/xsl" href="rss1.xsl"?>
<rss version="2.0" xmlns:atom="http://www.w3.org/2005/Atom" xmlns:content="http://purl.org/rss/1.0/modules/content/" xmlns:dc="http://purl.org/dc/elements/1.1/" xmlns:media="http://search.yahoo.com/mrss/">
<channel>
 <title>Getty</title>
 <link>http://www.gettyimg.com/</link>
 <atom:link href="http://www.gettyimg.com/" rel="self" type="application/rss+xml" />

 
                <item>
                <title><![CDATA[【Albums (lossless)】FLAC - Pepsi Love Songs - The Choice Of A New Generation Vol. 1 (1995) [FLAC CD 16bits 44.1khz]]]></title>
                <link><![CDATA[https://sharemania.us/threads/pepsi-love-songs-the-choice-of-a-new-generation-vol-1-1995-flac-cd-16bits-44-1khz.223619/]]></link>
                <description><![CDATA[<article>
<blockquote class="messageText SelectQuoteContainer ugc baseHtml">
<div style="text-align: center"><b><img src="https://blogger.googleusercontent.com/img/b/R29vZ2xl/AVvXsEgsPD6mqwzQr7uzONbgq612wOW9vO2rL1-G6TIWqW7lG94K2hi8LFnsi1Mup9VrpDf7IrMNi1b8ijPvZN0J1FOvZVjo0Fy7DvpQqp8f2JrvaNsXrtuuECbN236I44Jm9RZmkoj2bBdThs35z8aKq_gwItLR58FlGM_EC8lWksGNPeyiVUpvYtpOrY2uPA/s800/Pepsi-Love-Songs-1999.jpg" class="bbCodeImage LbImage" alt="[​IMG]" data-url="https://blogger.googleusercontent.com/img/b/R29vZ2xl/AVvXsEgsPD6mqwzQr7uzONbgq612wOW9vO2rL1-G6TIWqW7lG94K2hi8LFnsi1Mup9VrpDf7IrMNi1b8ijPvZN0J1FOvZVjo0Fy7DvpQqp8f2JrvaNsXrtuuECbN236I44Jm9RZmkoj2bBdThs35z8aKq_gwItLR58FlGM_EC8lWksGNPeyiVUpvYtpOrY2uPA/s800/Pepsi-Love-Songs-1999.jpg" style=""></b><br>
<br>
<b><b>Artist: </b></b>Various Artists<br>
<b><b>Album: </b></b>Pepsi Love Songs Vol. 1<br>
<b><b>Year: </b></b>1995<br>
<b><b><b>Genre: </b></b></b>Pop<br>
<b><b><b>Quality: </b></b></b>FLAC 16bits/44.1kHz<br>
<b><b><b>Source: </b></b></b>CD-Rip<br>
<b><b>Size: </b></b>391mb<br>
<br>
<b><b><b><span style="text-decoration: underline">Tracklist:<br>
</span></b></b><br>
1.</b> Des'ree - You gotta be<br>
<b>2.</b> Dionne Farris - I know<br>
<b>3. </b>Gloria Estefan - Comming out of the dark<br>
<b>4. </b>Tina Arena - Chains<br>
<b>5. </b>Yossou N'Dour &amp; Neneh Cherry - 7 seconds<br>
<b>6.</b> Celine Dion - If you asked me to<br>
<b>7. </b>Terence Trent D'Arby - Holding on to you<br>
<b>8. </b>Sade - No ordinary love<br>
<b>9.</b> Cyndy Lauper - Time after time<br>
<b>10.</b> Culture Beat - Inside out (not normal mix)<br>
<b>11.</b> Melaine Williams &amp; Joe Roberts - You are everything<br>
<b>12.</b> Firehouse - I live my life for you<br>
<b>13.</b> Tears For Fears - Gods mistake<br>
<b>14.</b> Shabba Ranks - Mr. loverman<br>
<br>
<b><b><b>Download:<br>
<div class="bbCodeBlock bbCodeVfcHH HiddenContent">
<div class="attribution type">Hidden Content:</div>
<blockquote>You must either reply or click 'Like' to see the hidden information contained here.</blockquote>
</div></b></b></b>​</div>
<div class="messageTextEndMarker">&nbsp;</div>
</blockquote>
</article>]]></description>
                <author><![CDATA[evilwayz]]></author>
                </item>

                
                <item>
                <title><![CDATA[【Requests】[REQ AUD] - Blur - St. Charles Square (Dolby Atmos)]]></title>
                <link><![CDATA[https://sharemania.us/threads/blur-st-charles-square-dolby-atmos.223617/]]></link>
                <description><![CDATA[<article>
<blockquote class="messageText SelectQuoteContainer ugc baseHtml">
Would be great thanks: <a href="https://tidal.com/browse/album/301708030" target="_blank" class="externalLink" rel="nofollow">https://tidal.com/browse/album/301708030</a>
<div class="messageTextEndMarker">&nbsp;</div>
</blockquote>
</article>]]></description>
                <author><![CDATA[GorillazUnofficial]]></author>
                </item>

                
                <item>
                <title><![CDATA[【HD Live Performances】FEED - Love Mi Milano 2023.27.06 FEED 1080i 4.2.2 MPA-TSS]]></title>
                <link><![CDATA[https://sharemania.us/threads/love-mi-milano-2023-27-06-feed-1080i-4-2-2-mpa-tss.223618/]]></link>
                <description><![CDATA[<article>
<blockquote class="messageText SelectQuoteContainer ugc baseHtml">
<img src="https://i.imgur.com/fdTU4jx.png" class="bbCodeImage LbImage" alt="[​IMG]" data-url="https://i.imgur.com/fdTU4jx.png" style=""> <br>
<br>
<div class="ToggleTriggerAnchor bbCodeSpoilerContainer">
<button type="button" class="button bbCodeSpoilerButton ToggleTrigger Tooltip JsOnly" data-target="> .SpoilerTarget"><span>Spoiler: <span class="SpoilerTitle">Media Info</span></span></button>
<div class="SpoilerTarget bbCodeSpoilerText">General<br>
ID : 1 (0x1)<br>
Complete name : D:\Records\Love Mi Milano 2023.27.06 FEED 1080i 4.2.2 MPA.ts<br>
Format : MPEG-TS<br>
File size : 62.4 GiB<br>
Duration : 6 h 55 min<br>
Overall bit rate mode : Variable<br>
Overall bit rate : 21.5 Mb/s<br>
Video<br>
ID : 33 (0x21)<br>
Menu ID : 1 (0x1)<br>
Format : AVC<br>
Format/Info : Advanced Video Codec<br>
Format profile : High 4:2:2@L4.1<br>
Format settings : CABAC / 4 Ref Frames<br>
Format settings, CABAC : Yes<br>
Format settings, Reference frames : 4 frames<br>
Codec ID : 27<br>
Duration : 6 h 55 min<br>
Bit rate : 19.4 Mb/s<br>
Width : 1 920 pixels<br>
Height : 1 080 pixels<br>
Display aspect ratio : 16:9<br>
Frame rate : 25.000 FPS<br>
Color space : YUV<br>
Chroma subsampling : 4:2:2<br>
Bit depth : 8 bits<br>
Scan type : Interlaced<br>
Scan type, store method : Separated fields<br>
Scan order : Top Field First<br>
Bits/(Pixel*Frame) : 0.375<br>
Stream size : 56.4 GiB (90%)<br>
Color range : Limited<br>
Color primaries : BT.709<br>
Transfer characteristics : BT.709<br>
Matrix coefficients : BT.709<br>
Audio #1<br>
ID : 34 (0x22)<br>
Menu ID : 1 (0x1)<br>
Format : MPEG Audio<br>
Format version : Version 1<br>
Format profile : Layer 2<br>
Format settings : Dual mono<br>
Codec ID : 3<br>
Duration : 6 h 55 min<br>
Bit rate mode : Constant<br>
Bit rate : 256 kb/s<br>
Channel(s) : 2 channels<br>
Sampling rate : 48.0 kHz<br>
Frame rate : 41.667 FPS (1152 SPF)<br>
Compression mode : Lossy<br>
Delay relative to video : -50 ms<br>
Stream size : 760 MiB (1%)<br>
Language : English<br>
Audio #2<br>
ID : 35 (0x23)<br>
Menu ID : 1 (0x1)<br>
Format : MPEG Audio<br>
Format version : Version 1<br>
Format profile : Layer 2<br>
Format settings : Dual mono<br>
Codec ID : 3<br>
Duration : 6 h 55 min<br>
Bit rate mode : Constant<br>
Bit rate : 256 kb/s<br>
Channel(s) : 2 channels<br>
Sampling rate : 48.0 kHz<br>
Frame rate : 41.667 FPS (1152 SPF)<br>
Compression mode : Lossy<br>
Delay relative to video : -50 ms<br>
Stream size : 760 MiB (1%)<br>
Language : English<br>
Audio #3<br>
ID : 36 (0x24)<br>
Menu ID : 1 (0x1)<br>
Format : MPEG Audio<br>
Format version : Version 1<br>
Format profile : Layer 2<br>
Format settings : Dual mono<br>
Codec ID : 3<br>
Duration : 6 h 55 min<br>
Bit rate mode : Constant<br>
Bit rate : 256 kb/s<br>
Channel(s) : 2 channels<br>
Sampling rate : 48.0 kHz<br>
Frame rate : 41.667 FPS (1152 SPF)<br>
Compression mode : Lossy<br>
Delay relative to video : -58 ms<br>
Stream size : 760 MiB (1%)<br>
Language : English<br>
Audio #4<br>
ID : 37 (0x25)<br>
Menu ID : 1 (0x1)<br>
Format : MPEG Audio<br>
Format version : Version 1<br>
Format profile : Layer 2<br>
Format settings : Dual mono<br>
Codec ID : 3<br>
Duration : 6 h 55 min<br>
Bit rate mode : Constant<br>
Bit rate : 256 kb/s<br>
Channel(s) : 2 channels<br>
Sampling rate : 48.0 kHz<br>
Frame rate : 41.667 FPS (1152 SPF)<br>
Compression mode : Lossy<br>
Delay relative to video : -58 ms<br>
Stream size : 760 MiB (1%)<br>
Language : English<br>
Menu<br>
ID : 32 (0x20)<br>
Menu ID : 1 (0x1)<br>
Format : AVC / MPEG Audio / MPEG Audio / MPEG Audio / MPEG Audio<br>
Duration : 6 h 55 min<br>
List : 33 (0x21) (AVC) / 34 (0x22) (MPEG Audio, English) / 35 (0x23) (MPEG Audio, English) / 36 (0x24) (MPEG Audio, English) / 37 (0x25) (MPEG Audio, English)<br>
Language : / English / English / English / English<br>
Maximum bit rate : 200000000</div>
</div><br>
<div class="bbCodeBlock bbCodeVfcHH HiddenContent">
<div class="attribution type">Hidden Content:</div>
<blockquote>You must reply before you can see the hidden data contained here.</blockquote>
</div>
<div class="messageTextEndMarker">&nbsp;</div>
</blockquote>
</article>]]></description>
                <author><![CDATA[theslothsidd]]></author>
                </item>

                </channel></rss>